M48
;Layer_Color=9474304
;FILE_FORMAT=4:4
METRIC,LZ
;TYPE=PLATED
T01F00S00C0.8900
T02F00S00C3.2000
%
T01
X0169Y0043
X017154
X017408
X015508
X015254
X015
X013608
X013354
X0131
X011708
X011454
X0112
X009808
X009554
X0093
X007908
X007654
X0074
X006006
X005752
X005498
X004106
Y0059
X003852
X003598
Y0043
X003852
T02
X016145Y0051
X010445
X004745
M30
