%TF.GenerationSoftware,Altium Limited,Altium Designer,25.1.2 (22)*%
G04 Layer_Physical_Order=1*
G04 Layer_Color=255*
%FSLAX45Y45*%
%MOMM*%
%TF.SameCoordinates,DBCF1AAC-442F-4647-8ACB-6B0B897F2A70*%
%TF.FilePolarity,Positive*%
%TF.FileFunction,Copper,L1,Top,Signal*%
%TF.Part,Single*%
G01*
G75*
%TA.AperFunction,SMDPad,CuDef*%
G04:AMPARAMS|DCode=10|XSize=4.8mm|YSize=1.2mm|CornerRadius=0.3mm|HoleSize=0mm|Usage=FLASHONLY|Rotation=90.000|XOffset=0mm|YOffset=0mm|HoleType=Round|Shape=RoundedRectangle|*
%AMROUNDEDRECTD10*
21,1,4.80000,0.60000,0,0,90.0*
21,1,4.20000,1.20000,0,0,90.0*
1,1,0.60000,0.30000,2.10000*
1,1,0.60000,0.30000,-2.10000*
1,1,0.60000,-0.30000,-2.10000*
1,1,0.60000,-0.30000,2.10000*
%
%ADD10ROUNDEDRECTD10*%
%ADD11R,1.27000X0.50800*%
%ADD12R,1.85000X1.30000*%
%ADD13R,1.30000X1.85000*%
%TA.AperFunction,Conductor*%
%ADD14C,0.50000*%
%TA.AperFunction,ComponentPad*%
%ADD15O,1.50000X2.50000*%
%ADD16R,1.50000X2.50000*%
%TA.AperFunction,ViaPad*%
%ADD17O,13.60000X3.80000*%
%ADD18C,3.80000*%
G36*
X16535049Y6941816D02*
X16522511Y6873874D01*
X16494705Y6855295D01*
X16447098Y6784045D01*
X16430380Y6700000D01*
X16447098Y6615955D01*
X16494705Y6544705D01*
X16565955Y6497098D01*
X16650000Y6480380D01*
X17630000D01*
X17714046Y6497098D01*
X17780000Y6541168D01*
X17830000Y6528465D01*
Y3671535D01*
X17780000Y3658832D01*
X17714046Y3702902D01*
X17630000Y3719620D01*
X16650000D01*
X16565955Y3702902D01*
X16494705Y3655295D01*
X16447098Y3584045D01*
X16430380Y3500000D01*
X16447098Y3415955D01*
X16494705Y3344706D01*
X16531679Y3320000D01*
X16516512Y3270000D01*
X11063488D01*
X11048321Y3320000D01*
X11085295Y3344706D01*
X11132902Y3415955D01*
X11149620Y3500000D01*
X11132902Y3584045D01*
X11085295Y3655295D01*
X11014045Y3702902D01*
X10930000Y3719620D01*
X9950000D01*
X9865955Y3702902D01*
X9794705Y3655295D01*
X9747098Y3584045D01*
X9730380Y3500000D01*
X9747098Y3415955D01*
X9794705Y3344706D01*
X9831679Y3320000D01*
X9816512Y3270000D01*
X4363488D01*
X4348321Y3320000D01*
X4385295Y3344706D01*
X4432902Y3415955D01*
X4449620Y3500000D01*
X4432902Y3584045D01*
X4385295Y3655295D01*
X4314045Y3702902D01*
X4230000Y3719620D01*
X3250000D01*
X3165955Y3702902D01*
X3094705Y3655295D01*
X3080000Y3633287D01*
X3030000Y3648454D01*
Y6551546D01*
X3080000Y6566713D01*
X3094705Y6544705D01*
X3165955Y6497098D01*
X3250000Y6480380D01*
X4230000D01*
X4314045Y6497098D01*
X4385295Y6544705D01*
X4432902Y6615955D01*
X4449620Y6700000D01*
X4432902Y6784045D01*
X4385295Y6855295D01*
X4357488Y6873874D01*
X4344950Y6941816D01*
X4350701Y6950000D01*
X9829299D01*
X9835050Y6941816D01*
X9822512Y6873874D01*
X9794705Y6855295D01*
X9747098Y6784045D01*
X9730380Y6700000D01*
X9747098Y6615955D01*
X9794705Y6544705D01*
X9865955Y6497098D01*
X9950000Y6480380D01*
X10930000D01*
X11014045Y6497098D01*
X11085295Y6544705D01*
X11132902Y6615955D01*
X11149620Y6700000D01*
X11132902Y6784045D01*
X11085295Y6855295D01*
X11057488Y6873874D01*
X11044950Y6941816D01*
X11050701Y6950000D01*
X16529298D01*
X16535049Y6941816D01*
D02*
G37*
%LPC*%
G36*
X5817900Y6455660D02*
X5712700D01*
Y6377960D01*
X5817900D01*
Y6455660D01*
D02*
G37*
G36*
X5687300D02*
X5582100D01*
Y6377960D01*
X5687300D01*
Y6455660D01*
D02*
G37*
G36*
X5817900Y6352560D02*
X5712700D01*
Y6274860D01*
X5817900D01*
Y6352560D01*
D02*
G37*
G36*
X5687300D02*
X5582100D01*
Y6274860D01*
X5687300D01*
Y6352560D01*
D02*
G37*
G36*
X5390820Y6255800D02*
X5314620D01*
Y6217700D01*
X5390820D01*
Y6255800D01*
D02*
G37*
G36*
Y6192300D02*
X5314620D01*
Y6154200D01*
X5390820D01*
Y6192300D01*
D02*
G37*
G36*
X5058080Y6259553D02*
X3755000D01*
X3716426Y6243575D01*
X3571426Y6098575D01*
X3555448Y6060000D01*
Y6050400D01*
X3497600D01*
Y5749600D01*
X3698400D01*
Y6050400D01*
X3698400D01*
X3692293Y6065144D01*
X3777596Y6150447D01*
X3954588D01*
X3975299Y6100448D01*
X3908110Y6033258D01*
X3891174Y6044575D01*
X3852000Y6052367D01*
X3812826Y6044575D01*
X3779616Y6022384D01*
X3757426Y5989174D01*
X3749633Y5950000D01*
Y5850000D01*
X3757426Y5810826D01*
X3779616Y5777616D01*
X3812826Y5755425D01*
X3852000Y5747633D01*
X3891174Y5755425D01*
X3924384Y5777616D01*
X3946575Y5810826D01*
X3954367Y5849999D01*
X4003633D01*
X4011426Y5810826D01*
X4033616Y5777616D01*
X4066826Y5755425D01*
X4093300Y5750159D01*
Y5900000D01*
X4106000D01*
Y5912700D01*
X4208367D01*
Y5950000D01*
X4200575Y5989174D01*
X4189701Y6005447D01*
X4212049Y6055447D01*
X4969180D01*
Y5964200D01*
X5146980D01*
X5146980Y5964200D01*
X5196980Y5969495D01*
X5217856Y5960847D01*
X5300770D01*
X5302050Y5960317D01*
X5582100D01*
Y5924340D01*
X5817900D01*
Y6105140D01*
X5582100D01*
Y6069422D01*
X5302800D01*
X5301520Y6069953D01*
X5240453D01*
X5201386Y6109019D01*
X5226916Y6154200D01*
X5257264Y6154200D01*
X5289220D01*
Y6205000D01*
Y6255800D01*
X5213020D01*
Y6207563D01*
X5201920Y6196843D01*
X5163020Y6178850D01*
X5146980Y6188210D01*
Y6255800D01*
X5067139D01*
X5058080Y6259553D01*
D02*
G37*
G36*
X4208367Y5887300D02*
X4118700D01*
Y5750159D01*
X4145174Y5755425D01*
X4178384Y5777616D01*
X4200575Y5810826D01*
X4208367Y5850000D01*
Y5887300D01*
D02*
G37*
G36*
X16187845Y5315400D02*
X16102155D01*
X16022984Y5282607D01*
X15962393Y5222014D01*
X15929601Y5142846D01*
Y5057154D01*
X15962393Y4977986D01*
X16022984Y4917393D01*
X16102155Y4884600D01*
X16187845D01*
X16267014Y4917393D01*
X16327608Y4977986D01*
X16360400Y5057154D01*
Y5142846D01*
X16327608Y5222014D01*
X16267014Y5282607D01*
X16187845Y5315400D01*
D02*
G37*
G36*
X10487846D02*
X10402154D01*
X10322986Y5282607D01*
X10262393Y5222014D01*
X10229600Y5142846D01*
Y5057154D01*
X10262393Y4977986D01*
X10322986Y4917393D01*
X10402154Y4884600D01*
X10487846D01*
X10567014Y4917393D01*
X10627607Y4977986D01*
X10660400Y5057154D01*
Y5142846D01*
X10627607Y5222014D01*
X10567014Y5282607D01*
X10487846Y5315400D01*
D02*
G37*
G36*
X4787846D02*
X4702154D01*
X4622986Y5282607D01*
X4562393Y5222014D01*
X4529600Y5142846D01*
Y5057154D01*
X4562393Y4977986D01*
X4622986Y4917393D01*
X4702154Y4884600D01*
X4787846D01*
X4867014Y4917393D01*
X4927607Y4977986D01*
X4960400Y5057154D01*
Y5142846D01*
X4927607Y5222014D01*
X4867014Y5282607D01*
X4787846Y5315400D01*
D02*
G37*
G36*
X17420700Y4449841D02*
Y4312700D01*
X17510367D01*
Y4350000D01*
X17502576Y4389174D01*
X17480383Y4422384D01*
X17447174Y4444575D01*
X17420700Y4449841D01*
D02*
G37*
G36*
X15520700D02*
Y4312700D01*
X15610367D01*
Y4350000D01*
X15602576Y4389174D01*
X15580383Y4422384D01*
X15547174Y4444575D01*
X15520700Y4449841D01*
D02*
G37*
G36*
X13620700D02*
Y4312700D01*
X13710367D01*
Y4350000D01*
X13702576Y4389174D01*
X13680383Y4422384D01*
X13647174Y4444575D01*
X13620700Y4449841D01*
D02*
G37*
G36*
X11720700D02*
Y4312700D01*
X11810367D01*
Y4350000D01*
X11802575Y4389174D01*
X11780384Y4422384D01*
X11747174Y4444575D01*
X11720700Y4449841D01*
D02*
G37*
G36*
X9820700D02*
Y4312700D01*
X9910367D01*
Y4350000D01*
X9902575Y4389174D01*
X9880384Y4422384D01*
X9847174Y4444575D01*
X9820700Y4449841D01*
D02*
G37*
G36*
X7920700D02*
Y4312700D01*
X8010367D01*
Y4350000D01*
X8002575Y4389174D01*
X7980384Y4422384D01*
X7947174Y4444575D01*
X7920700Y4449841D01*
D02*
G37*
G36*
X6018700D02*
Y4312700D01*
X6108367D01*
Y4350000D01*
X6100575Y4389174D01*
X6078384Y4422384D01*
X6045174Y4444575D01*
X6018700Y4449841D01*
D02*
G37*
G36*
X4118700D02*
Y4312700D01*
X4208367D01*
Y4350000D01*
X4200575Y4389174D01*
X4178384Y4422384D01*
X4145174Y4444575D01*
X4118700Y4449841D01*
D02*
G37*
G36*
X15610367Y4287300D02*
X15520700D01*
Y4150159D01*
X15547174Y4155425D01*
X15580383Y4177616D01*
X15602576Y4210826D01*
X15610367Y4250000D01*
Y4287300D01*
D02*
G37*
G36*
X13710367D02*
X13620700D01*
Y4150159D01*
X13647174Y4155425D01*
X13680383Y4177616D01*
X13702576Y4210826D01*
X13710367Y4250000D01*
Y4287300D01*
D02*
G37*
G36*
X11810367D02*
X11720700D01*
Y4150159D01*
X11747174Y4155425D01*
X11780384Y4177616D01*
X11802575Y4210826D01*
X11810367Y4250000D01*
Y4287300D01*
D02*
G37*
G36*
X9910367D02*
X9820700D01*
Y4150159D01*
X9847174Y4155425D01*
X9880384Y4177616D01*
X9902575Y4210826D01*
X9910367Y4250000D01*
Y4287300D01*
D02*
G37*
G36*
X8010367D02*
X7920700D01*
Y4150159D01*
X7947174Y4155425D01*
X7980384Y4177616D01*
X8002575Y4210826D01*
X8010367Y4250000D01*
Y4287300D01*
D02*
G37*
G36*
X6108367D02*
X6018700D01*
Y4150159D01*
X6045174Y4155425D01*
X6078384Y4177616D01*
X6100575Y4210826D01*
X6108367Y4250000D01*
Y4287300D01*
D02*
G37*
G36*
X4208367D02*
X4118700D01*
Y4150159D01*
X4145174Y4155425D01*
X4178384Y4177616D01*
X4200575Y4210826D01*
X4208367Y4250000D01*
Y4287300D01*
D02*
G37*
G36*
X17510367D02*
X17420700D01*
Y4150159D01*
X17447174Y4155425D01*
X17480383Y4177616D01*
X17502576Y4210826D01*
X17510367Y4250000D01*
Y4287300D01*
D02*
G37*
G36*
X15467500Y5437500D02*
X14902499D01*
X14897501Y4747500D01*
X15025447D01*
Y4642596D01*
X14961426Y4578574D01*
X14945447Y4540000D01*
Y4450400D01*
X14899600D01*
Y4149600D01*
X14899600D01*
X14914340Y4117900D01*
Y3882100D01*
X15095140D01*
Y4117899D01*
X15095140D01*
X15100401Y4149600D01*
X15100400Y4149601D01*
X15100400Y4165721D01*
Y4450400D01*
X15054553D01*
Y4517403D01*
X15118575Y4581425D01*
X15134552Y4620000D01*
Y4747500D01*
X15245447D01*
Y4632596D01*
X15215427Y4602574D01*
X15199448Y4564000D01*
Y4434299D01*
X15181616Y4422384D01*
X15159425Y4389174D01*
X15151633Y4350000D01*
Y4250000D01*
X15159425Y4210826D01*
X15181616Y4177616D01*
X15214825Y4155425D01*
X15229218Y4152562D01*
X15259442Y4123169D01*
X15264861Y4098814D01*
Y4012700D01*
X15355260D01*
X15445660D01*
Y4070843D01*
X15445660Y4112934D01*
X15448781Y4118657D01*
X15473978Y4145390D01*
X15492876Y4150641D01*
X15495300Y4150159D01*
Y4300000D01*
Y4449841D01*
X15468826Y4444575D01*
X15435616Y4422384D01*
X15413425Y4389174D01*
X15405634Y4350000D01*
X15356367D01*
X15348575Y4389174D01*
X15326384Y4422384D01*
X15308553Y4434299D01*
Y4541404D01*
X15338574Y4571425D01*
X15354552Y4610000D01*
Y4747500D01*
X15467500D01*
Y5437500D01*
D02*
G37*
G36*
X11667500D02*
X11102500D01*
X11097500Y4747500D01*
X11225447D01*
Y4612596D01*
X11161426Y4548575D01*
X11145448Y4510000D01*
Y4450400D01*
X11099600D01*
Y4149600D01*
X11099600D01*
X11114340Y4117900D01*
Y3882100D01*
X11295140D01*
Y4117899D01*
X11295140D01*
X11300401Y4149600D01*
X11300400Y4149601D01*
X11300400Y4165721D01*
Y4450400D01*
X11285928D01*
X11267549Y4500400D01*
X11318575Y4551425D01*
X11334553Y4590000D01*
Y4747500D01*
X11445448D01*
Y4632597D01*
X11415426Y4602575D01*
X11399448Y4564000D01*
Y4434299D01*
X11381616Y4422384D01*
X11359426Y4389174D01*
X11351633Y4350000D01*
Y4250000D01*
X11359426Y4210826D01*
X11381616Y4177616D01*
X11414826Y4155425D01*
X11429218Y4152562D01*
X11459442Y4123169D01*
X11464860Y4098814D01*
Y4012700D01*
X11555261D01*
X11645660D01*
Y4070843D01*
X11645660Y4112934D01*
X11648781Y4118657D01*
X11673978Y4145390D01*
X11692875Y4150641D01*
X11695300Y4150159D01*
Y4300000D01*
Y4449841D01*
X11668826Y4444575D01*
X11635616Y4422384D01*
X11613426Y4389174D01*
X11605633Y4350000D01*
X11556367D01*
X11548575Y4389174D01*
X11526384Y4422384D01*
X11508553Y4434299D01*
Y4541404D01*
X11538575Y4571426D01*
X11554553Y4610000D01*
Y4747500D01*
X11667500D01*
Y5437500D01*
D02*
G37*
G36*
X9767500D02*
X9202500D01*
X9197500Y4747500D01*
X9325447D01*
Y4632597D01*
X9261425Y4568575D01*
X9245447Y4530000D01*
Y4450400D01*
X9199600D01*
Y4149600D01*
X9199600D01*
X9214340Y4117900D01*
Y3882100D01*
X9395140D01*
Y4117899D01*
X9395140D01*
X9400401Y4149600D01*
X9400400Y4149601D01*
X9400400Y4165721D01*
Y4450400D01*
X9354553D01*
Y4507404D01*
X9418575Y4571426D01*
X9434553Y4610000D01*
Y4747500D01*
X9545448D01*
Y4632597D01*
X9515425Y4602574D01*
X9499447Y4564000D01*
Y4434299D01*
X9481616Y4422384D01*
X9459425Y4389174D01*
X9451633Y4350000D01*
Y4250000D01*
X9459425Y4210826D01*
X9481616Y4177616D01*
X9514826Y4155425D01*
X9529218Y4152562D01*
X9559442Y4123169D01*
X9564860Y4098814D01*
Y4012699D01*
X9655259D01*
X9745660D01*
Y4070843D01*
X9745660Y4112934D01*
X9748781Y4118657D01*
X9773978Y4145390D01*
X9792875Y4150641D01*
X9795300Y4150159D01*
Y4300000D01*
Y4449841D01*
X9768826Y4444575D01*
X9735616Y4422384D01*
X9713425Y4389174D01*
X9705633Y4350000D01*
X9656367D01*
X9648575Y4389174D01*
X9626384Y4422384D01*
X9608553Y4434299D01*
Y4541404D01*
X9638575Y4571426D01*
X9654553Y4610000D01*
Y4747500D01*
X9767500D01*
Y5437500D01*
D02*
G37*
G36*
X17367500D02*
X16802499D01*
X16797501Y4747500D01*
X16925447D01*
Y4692596D01*
X16861426Y4628575D01*
X16845447Y4590000D01*
Y4450400D01*
X16799600D01*
Y4149600D01*
X16799600D01*
X16814340Y4117900D01*
Y3882100D01*
X16995140D01*
Y4117899D01*
X16995140D01*
X17000401Y4149600D01*
X17000400Y4149601D01*
X17000400Y4165721D01*
Y4450400D01*
X16954553D01*
Y4567404D01*
X17018575Y4631426D01*
X17034552Y4670000D01*
Y4747500D01*
X17145447D01*
Y4662596D01*
X17115427Y4632574D01*
X17099448Y4594000D01*
Y4434299D01*
X17081616Y4422384D01*
X17059425Y4389174D01*
X17051633Y4350000D01*
Y4250000D01*
X17059425Y4210826D01*
X17081616Y4177616D01*
X17114825Y4155425D01*
X17129218Y4152562D01*
X17159442Y4123169D01*
X17164861Y4098814D01*
Y4012700D01*
X17255260D01*
X17345660D01*
Y4070843D01*
X17345660Y4112934D01*
X17348781Y4118657D01*
X17373978Y4145390D01*
X17392876Y4150641D01*
X17395300Y4150159D01*
Y4300000D01*
Y4449841D01*
X17368826Y4444575D01*
X17335616Y4422384D01*
X17313425Y4389174D01*
X17305634Y4350000D01*
X17256367D01*
X17248575Y4389174D01*
X17226384Y4422384D01*
X17208553Y4434299D01*
Y4571404D01*
X17238574Y4601425D01*
X17254552Y4640000D01*
Y4747500D01*
X17367500D01*
Y5437500D01*
D02*
G37*
G36*
X7867500D02*
X7302500D01*
X7297500Y4747500D01*
X7425447D01*
Y4692596D01*
X7361425Y4628574D01*
X7345447Y4590000D01*
Y4450400D01*
X7299600D01*
Y4149600D01*
X7299600D01*
X7314340Y4117900D01*
Y3882100D01*
X7495140D01*
Y4117899D01*
X7495140D01*
X7500401Y4149600D01*
X7500400Y4149601D01*
X7500400Y4165721D01*
Y4450400D01*
X7454553D01*
Y4567404D01*
X7518574Y4631426D01*
X7534553Y4670000D01*
Y4747500D01*
X7645447D01*
Y4649746D01*
X7615425Y4619724D01*
X7599447Y4581149D01*
Y4434299D01*
X7581616Y4422384D01*
X7559425Y4389174D01*
X7551633Y4350000D01*
Y4250000D01*
X7559425Y4210826D01*
X7581616Y4177616D01*
X7614826Y4155425D01*
X7629218Y4152562D01*
X7659442Y4123169D01*
X7664860Y4098814D01*
Y4012700D01*
X7755260D01*
X7845660D01*
Y4070843D01*
X7845660Y4112934D01*
X7848781Y4118657D01*
X7873979Y4145390D01*
X7892875Y4150641D01*
X7895300Y4150159D01*
Y4300000D01*
Y4449841D01*
X7868826Y4444575D01*
X7835616Y4422384D01*
X7813425Y4389174D01*
X7805633Y4350000D01*
X7756367D01*
X7748575Y4389174D01*
X7726384Y4422384D01*
X7708553Y4434299D01*
Y4558553D01*
X7738575Y4588575D01*
X7754553Y4627149D01*
Y4747500D01*
X7867500D01*
Y5437500D01*
D02*
G37*
G36*
X13567500D02*
X13002499D01*
X12997501Y4747500D01*
X13125447D01*
Y4642597D01*
X13061424Y4578575D01*
X13045447Y4540000D01*
Y4450400D01*
X12999600D01*
Y4149600D01*
X12999600D01*
X13014340Y4117900D01*
Y3882100D01*
X13195140D01*
Y4117899D01*
X13195140D01*
X13200401Y4149600D01*
X13200400Y4149601D01*
X13200400Y4165721D01*
Y4450400D01*
X13154553D01*
Y4517404D01*
X13218575Y4581426D01*
X13234554Y4620000D01*
Y4747500D01*
X13345448D01*
Y4622597D01*
X13315425Y4592575D01*
X13299448Y4554000D01*
Y4434299D01*
X13281616Y4422384D01*
X13259425Y4389174D01*
X13251633Y4350000D01*
Y4250000D01*
X13259425Y4210826D01*
X13281616Y4177616D01*
X13314825Y4155425D01*
X13329218Y4152562D01*
X13359442Y4123169D01*
X13364861Y4098814D01*
Y4012700D01*
X13455260D01*
Y4000000D01*
D01*
Y4012700D01*
X13545660D01*
Y4070843D01*
X13545660Y4112934D01*
X13548781Y4118657D01*
X13573979Y4145390D01*
X13592876Y4150641D01*
X13595300Y4150159D01*
Y4300000D01*
Y4449841D01*
X13568826Y4444575D01*
X13535616Y4422384D01*
X13513425Y4389174D01*
X13505634Y4350000D01*
X13456367D01*
X13448575Y4389174D01*
X13426384Y4422384D01*
X13408553Y4434299D01*
Y4531404D01*
X13438576Y4561426D01*
X13454553Y4600000D01*
Y4747500D01*
X13567500D01*
Y5437500D01*
D02*
G37*
G36*
X4067500D02*
X3502500D01*
X3497500Y4747500D01*
X3625447D01*
Y4632596D01*
X3559426Y4566575D01*
X3543448Y4528000D01*
Y4450400D01*
X3497600D01*
Y4149600D01*
X3497600D01*
X3514340Y4117900D01*
Y3882100D01*
X3695140D01*
Y4117899D01*
X3695140D01*
X3698401Y4149601D01*
X3698400D01*
X3698400Y4166549D01*
Y4450400D01*
X3652553D01*
Y4505404D01*
X3718574Y4571425D01*
X3734553Y4610000D01*
Y4747500D01*
X3845447D01*
Y4622597D01*
X3813426Y4590575D01*
X3797448Y4552000D01*
Y4434299D01*
X3779616Y4422384D01*
X3757426Y4389174D01*
X3749633Y4350000D01*
Y4250000D01*
X3757426Y4210826D01*
X3779616Y4177616D01*
X3812826Y4155425D01*
X3829066Y4152195D01*
X3858203Y4124278D01*
X3864860Y4099212D01*
Y4012700D01*
X3955260D01*
X4045660D01*
Y4071784D01*
X4045660Y4112537D01*
X4047220Y4115696D01*
X4077708Y4148651D01*
X4091227Y4150572D01*
X4093300Y4150159D01*
Y4300000D01*
Y4449841D01*
X4066826Y4444575D01*
X4033616Y4422384D01*
X4011426Y4389174D01*
X4003633Y4350000D01*
X3954367D01*
X3946575Y4389174D01*
X3924384Y4422384D01*
X3906553Y4434299D01*
Y4529404D01*
X3938575Y4561426D01*
X3954553Y4600000D01*
Y4747500D01*
X4067500D01*
Y5437500D01*
D02*
G37*
G36*
X5967500D02*
X5402500D01*
X5397500Y4747500D01*
X5525447D01*
Y4662596D01*
X5459425Y4596574D01*
X5443447Y4558000D01*
Y4450400D01*
X5397600D01*
Y4149600D01*
X5397600D01*
X5414340Y4117900D01*
Y3882100D01*
X5595140D01*
Y4117899D01*
X5595140D01*
X5598401Y4149601D01*
X5598400D01*
X5598400Y4166549D01*
Y4450400D01*
X5552553D01*
Y4535403D01*
X5618574Y4601425D01*
X5634553Y4640000D01*
Y4747500D01*
X5745447D01*
Y4638597D01*
X5713425Y4606574D01*
X5697447Y4568000D01*
Y4434299D01*
X5679616Y4422384D01*
X5657425Y4389174D01*
X5649633Y4350000D01*
Y4250000D01*
X5657425Y4210826D01*
X5679616Y4177616D01*
X5712826Y4155425D01*
X5729066Y4152195D01*
X5758203Y4124278D01*
X5764860Y4099212D01*
Y4012700D01*
X5855260D01*
X5945660D01*
Y4071784D01*
X5945660Y4112537D01*
X5947220Y4115696D01*
X5977709Y4148651D01*
X5991226Y4150572D01*
X5993300Y4150159D01*
Y4300000D01*
Y4449841D01*
X5966826Y4444575D01*
X5933616Y4422384D01*
X5911425Y4389174D01*
X5903633Y4350000D01*
X5854367D01*
X5846575Y4389174D01*
X5824384Y4422384D01*
X5806553Y4434299D01*
Y4545404D01*
X5838575Y4577426D01*
X5854553Y4616000D01*
Y4747500D01*
X5967500D01*
Y5437500D01*
D02*
G37*
G36*
X17345660Y3987300D02*
X17267960D01*
Y3882100D01*
X17345660D01*
Y3987300D01*
D02*
G37*
G36*
X17242560D02*
X17164861D01*
Y3882100D01*
X17242560D01*
Y3987300D01*
D02*
G37*
G36*
X15445660Y3987300D02*
X15367960D01*
Y3882100D01*
X15445660D01*
Y3987300D01*
D02*
G37*
G36*
X15342560D02*
X15264861D01*
Y3882100D01*
X15342560D01*
Y3987300D01*
D02*
G37*
G36*
X13545660Y3987300D02*
X13467960D01*
Y3882100D01*
X13545660D01*
Y3987300D01*
D02*
G37*
G36*
X13442560D02*
X13364861D01*
Y3882100D01*
X13442560D01*
Y3987300D01*
D02*
G37*
G36*
X11645660Y3987300D02*
X11567961D01*
Y3882100D01*
X11645660D01*
Y3987300D01*
D02*
G37*
G36*
X11542561D02*
X11464860D01*
Y3882100D01*
X11542561D01*
Y3987300D01*
D02*
G37*
G36*
X9745660Y3987299D02*
X9667959D01*
Y3882100D01*
X9745660D01*
Y3987299D01*
D02*
G37*
G36*
X9642559D02*
X9564860D01*
Y3882100D01*
X9642559D01*
Y3987299D01*
D02*
G37*
G36*
X7845660Y3987300D02*
X7767960D01*
Y3882100D01*
X7845660D01*
Y3987300D01*
D02*
G37*
G36*
X7742560D02*
X7664860D01*
Y3882100D01*
X7742560D01*
Y3987300D01*
D02*
G37*
G36*
X5945660Y3987300D02*
X5867960D01*
Y3882100D01*
X5945660D01*
Y3987300D01*
D02*
G37*
G36*
X5842560D02*
X5764860D01*
Y3882100D01*
X5842560D01*
Y3987300D01*
D02*
G37*
G36*
X4045660Y3987300D02*
X3967960D01*
Y3882100D01*
X4045660D01*
Y3987300D01*
D02*
G37*
G36*
X3942560D02*
X3864860D01*
Y3882100D01*
X3942560D01*
Y3987300D01*
D02*
G37*
G36*
X12320000Y6867493D02*
X12260000D01*
X12240560Y6859440D01*
X12232507Y6840000D01*
Y3360000D01*
X12240560Y3340559D01*
X12260000Y3332507D01*
X12320000D01*
X12339440Y3340559D01*
X12347493Y3360000D01*
Y6840000D01*
X12339440Y6859440D01*
X12320000Y6867493D01*
D02*
G37*
%LPD*%
D10*
X3680000Y5077500D02*
D03*
X3900000D02*
D03*
X16980000D02*
D03*
X17200000D02*
D03*
X15080000D02*
D03*
X15300000D02*
D03*
X13180000D02*
D03*
X13400000D02*
D03*
X11280000D02*
D03*
X11500000D02*
D03*
X9380000D02*
D03*
X9600000D02*
D03*
X7480000D02*
D03*
X7700000D02*
D03*
X5580000D02*
D03*
X5800000D02*
D03*
D11*
X5058080Y6205000D02*
D03*
Y6110000D02*
D03*
Y6015000D02*
D03*
X5301920D02*
D03*
Y6205000D02*
D03*
D12*
X5700000Y6014740D02*
D03*
Y6365260D02*
D03*
D13*
X7755260Y4000000D02*
D03*
X7404740D02*
D03*
X9655260D02*
D03*
X9304740D02*
D03*
X11555260D02*
D03*
X11204740D02*
D03*
X3604740D02*
D03*
X3955260D02*
D03*
X16904739D02*
D03*
X17255260D02*
D03*
X15004739D02*
D03*
X15355260D02*
D03*
X13104739D02*
D03*
X13455260D02*
D03*
X5504740D02*
D03*
X5855260D02*
D03*
D14*
X17200000Y4640000D02*
Y5100000D01*
X17153999Y4594000D02*
X17200000Y4640000D01*
X16900000Y4590000D02*
X16980000Y4670000D01*
Y5100000D01*
X15253999Y4564000D02*
X15300000Y4610000D01*
Y5100000D01*
X15000000Y4540000D02*
X15080000Y4620000D01*
Y5100000D01*
X13400000Y4600000D02*
Y5100000D01*
X13353999Y4554000D02*
X13400000Y4600000D01*
X13180000Y4620000D02*
Y5100000D01*
X13100000Y4540000D02*
X13180000Y4620000D01*
X11500000Y4610000D02*
Y5100000D01*
X11454000Y4564000D02*
X11500000Y4610000D01*
X11200000Y4510000D02*
X11280000Y4590000D01*
Y5100000D01*
X9554000Y4564000D02*
X9600000Y4610000D01*
Y5100000D01*
X9300000Y4530000D02*
X9380000Y4610000D01*
Y5100000D01*
X7654000Y4581149D02*
X7700000Y4627149D01*
Y5100000D01*
X7480000Y4670000D02*
Y5100000D01*
X7400000Y4590000D02*
X7480000Y4670000D01*
X5800000Y4616000D02*
Y5100000D01*
X5752000Y4568000D02*
X5800000Y4616000D01*
X5580000Y4640000D02*
Y5100000D01*
X5498000Y4558000D02*
X5580000Y4640000D01*
X3852000Y4552000D02*
X3900000Y4600000D01*
Y5100000D01*
X3598000Y4528000D02*
X3680000Y4610000D01*
Y5100000D01*
X5752000Y4300000D02*
Y4568000D01*
X11454000Y4300000D02*
Y4564000D01*
X9554000Y4300000D02*
Y4564000D01*
X7654000Y4300000D02*
Y4581149D01*
X3852000Y4300000D02*
Y4552000D01*
X17153999Y4300000D02*
Y4594000D01*
X16900000Y4300000D02*
Y4590000D01*
X15253999Y4300000D02*
Y4564000D01*
X15000000Y4300000D02*
Y4540000D01*
X13353999Y4300000D02*
Y4554000D01*
X13100000Y4300000D02*
Y4540000D01*
X11200000Y4300000D02*
Y4510000D01*
X9300000Y4300000D02*
Y4530000D01*
X7400000Y4300000D02*
Y4590000D01*
X5498000Y4300000D02*
Y4558000D01*
X3598000Y4300000D02*
Y4528000D01*
X5699870Y6014870D02*
X5700000Y6014740D01*
X3610000Y6060000D02*
X3755000Y6205000D01*
X5058080D01*
X3598000Y5900000D02*
X3610000Y5912000D01*
Y6060000D01*
X3852000Y5900000D02*
X4062000Y6110000D01*
X5058080D01*
X5302050Y6014870D02*
X5699870D01*
X5301920Y6015000D02*
X5302050Y6014870D01*
X5301520Y6015400D02*
X5301920Y6015000D01*
X5217856Y6015400D02*
X5301520D01*
X5123656Y6109600D02*
X5217856Y6015400D01*
X5058480Y6109600D02*
X5123656D01*
X5058080Y6110000D02*
X5058480Y6109600D01*
X7402370Y4002370D02*
Y4297630D01*
X7400000Y4300000D02*
X7402370Y4297630D01*
Y4002370D02*
X7404740Y4000000D01*
X9300000Y4300000D02*
X9302370Y4297630D01*
Y4002370D02*
Y4297630D01*
Y4002370D02*
X9304740Y4000000D01*
X11202370Y4002370D02*
X11204740Y4000000D01*
X11200000Y4300000D02*
X11202370Y4297630D01*
Y4002370D02*
Y4297630D01*
X3600370Y4004370D02*
X3601370Y4005370D01*
Y4296630D01*
X3598000Y4300000D02*
X3601370Y4296630D01*
X5501370Y4003370D02*
Y4296630D01*
Y4003370D02*
X5504740Y4000000D01*
X5498000Y4300000D02*
X5501370Y4296630D01*
X16902370Y4002370D02*
X16904739Y4000000D01*
X16900000Y4300000D02*
X16902370Y4297630D01*
Y4002370D02*
Y4297630D01*
X15000000Y4300000D02*
X15002370Y4297630D01*
Y4002370D02*
Y4297630D01*
Y4002370D02*
X15004739Y4000000D01*
X13102370Y4002370D02*
Y4297630D01*
X13100000Y4300000D02*
X13102370Y4297630D01*
Y4002370D02*
X13104739Y4000000D01*
X17152000Y4302000D02*
X17153999Y4300000D01*
X15252000Y4302000D02*
X15253999Y4300000D01*
X13352000Y4302000D02*
X13353999Y4300000D01*
X3600370Y4004370D02*
X3604740Y4000000D01*
D15*
X4106000Y5900000D02*
D03*
X3852000D02*
D03*
X9808000Y4300000D02*
D03*
X9554000D02*
D03*
X17408000D02*
D03*
X17153999D02*
D03*
X15508000D02*
D03*
X15253999D02*
D03*
X13608000D02*
D03*
X13353999D02*
D03*
X11708000D02*
D03*
X11454000D02*
D03*
X7908000D02*
D03*
X7654000D02*
D03*
X6006000D02*
D03*
X5752000D02*
D03*
X4106000D02*
D03*
X3852000D02*
D03*
D16*
X3598000Y5900000D02*
D03*
X9300000Y4300000D02*
D03*
X16900000D02*
D03*
X15000000D02*
D03*
X13100000D02*
D03*
X11200000D02*
D03*
X7400000D02*
D03*
X5498000D02*
D03*
X3598000D02*
D03*
D17*
X10440000Y3500000D02*
D03*
X3740000Y6700000D02*
D03*
X17139999Y3500000D02*
D03*
Y6700000D02*
D03*
X3740000Y3500000D02*
D03*
X10440000Y6700000D02*
D03*
D18*
X4745000Y5100000D02*
D03*
X16145000D02*
D03*
X10445000D02*
D03*
%TF.MD5,06153f1fed0181cf531a974834d74dda*%
M02*
