%TF.GenerationSoftware,Altium Limited,Altium Designer,25.1.2 (22)*%
G04 Layer_Color=0*
%FSLAX45Y45*%
%MOMM*%
%TF.SameCoordinates,DBCF1AAC-442F-4647-8ACB-6B0B897F2A70*%
%TF.FilePolarity,Positive*%
%TF.FileFunction,Plated,1,2,PTH,Drill*%
%TF.Part,Single*%
G01*
G75*
%TA.AperFunction,ComponentDrill*%
%ADD36C,0.89000*%
%TA.AperFunction,OtherDrill,Pad Free-9 (104.4mm,35mm)*%
%ADD37O,13.00000X3.20000*%
%TA.AperFunction,OtherDrill,Pad Free-9 (37.4mm,67mm)*%
%ADD38O,13.00000X3.20000*%
%TA.AperFunction,OtherDrill,Pad Free-9 (171.4mm,35mm)*%
%ADD39O,13.00000X3.20000*%
%TA.AperFunction,OtherDrill,Pad Free-9 (171.4mm,67mm)*%
%ADD40O,13.00000X3.20000*%
%TA.AperFunction,OtherDrill,Pad Free-9 (37.4mm,35mm)*%
%ADD41O,13.00000X3.20000*%
%TA.AperFunction,OtherDrill,Pad Free-9 (104.4mm,67mm)*%
%ADD42O,13.00000X3.20000*%
%TA.AperFunction,OtherDrill,Pad Free-10 (47.45mm,51mm)*%
%ADD43C,3.20000*%
%TA.AperFunction,OtherDrill,Pad Free-10 (161.45mm,51mm)*%
%ADD44C,3.20000*%
%TA.AperFunction,OtherDrill,Pad Free-10 (104.45mm,51mm)*%
%ADD45C,3.20000*%
D36*
X4106000Y5900000D02*
D03*
X3598000D02*
D03*
X3852000D02*
D03*
X9808000Y4300000D02*
D03*
X9300000D02*
D03*
X9554000D02*
D03*
X17408000D02*
D03*
X17153999D02*
D03*
X16900000D02*
D03*
X15508000D02*
D03*
X15253999D02*
D03*
X15000000D02*
D03*
X13608000D02*
D03*
X13353999D02*
D03*
X13100000D02*
D03*
X11708000D02*
D03*
X11454000D02*
D03*
X11200000D02*
D03*
X7908000D02*
D03*
X7654000D02*
D03*
X7400000D02*
D03*
X6006000D02*
D03*
X5752000D02*
D03*
X5498000D02*
D03*
X4106000D02*
D03*
X3852000D02*
D03*
X3598000D02*
D03*
D37*
X10440000Y3500000D02*
D03*
D38*
X3740000Y6700000D02*
D03*
D39*
X17139999Y3500000D02*
D03*
D40*
Y6700000D02*
D03*
D41*
X3740000Y3500000D02*
D03*
D42*
X10440000Y6700000D02*
D03*
D43*
X4745000Y5100000D02*
D03*
D44*
X16145000D02*
D03*
D45*
X10445000D02*
D03*
%TF.MD5,40c0ba8e8fcf7fe9eeab3ed9ca512a31*%
M02*
