%TF.GenerationSoftware,Altium Limited,Altium Designer,25.1.2 (22)*%
G04 Layer_Color=8388736*
%FSLAX45Y45*%
%MOMM*%
%TF.SameCoordinates,DBCF1AAC-442F-4647-8ACB-6B0B897F2A70*%
%TF.FilePolarity,Negative*%
%TF.FileFunction,Soldermask,Top*%
%TF.Part,Single*%
G01*
G75*
%TA.AperFunction,SMDPad,CuDef*%
%ADD11R,1.27000X0.50800*%
G04:AMPARAMS|DCode=28|XSize=5mm|YSize=1.4mm|CornerRadius=0.4mm|HoleSize=0mm|Usage=FLASHONLY|Rotation=90.000|XOffset=0mm|YOffset=0mm|HoleType=Round|Shape=RoundedRectangle|*
%AMROUNDEDRECTD28*
21,1,5.00000,0.60000,0,0,90.0*
21,1,4.20000,1.40000,0,0,90.0*
1,1,0.80000,0.30000,2.10000*
1,1,0.80000,0.30000,-2.10000*
1,1,0.80000,-0.30000,-2.10000*
1,1,0.80000,-0.30000,2.10000*
%
%ADD28ROUNDEDRECTD28*%
%ADD29R,2.05000X1.50000*%
%ADD30R,1.50000X2.05000*%
%TA.AperFunction,ComponentPad*%
%ADD31O,1.70000X2.70000*%
%ADD32R,1.70000X2.70000*%
%TA.AperFunction,ViaPad*%
%ADD33O,13.80000X4.00000*%
%ADD34C,4.00000*%
D11*
X5058080Y6205000D02*
D03*
Y6110000D02*
D03*
Y6015000D02*
D03*
X5301920D02*
D03*
Y6205000D02*
D03*
D28*
X3680000Y5077500D02*
D03*
X3900000D02*
D03*
X16980000D02*
D03*
X17200000D02*
D03*
X15080000D02*
D03*
X15300000D02*
D03*
X13180000D02*
D03*
X13400000D02*
D03*
X11280000D02*
D03*
X11500000D02*
D03*
X9380000D02*
D03*
X9600000D02*
D03*
X7480000D02*
D03*
X7700000D02*
D03*
X5580000D02*
D03*
X5800000D02*
D03*
D29*
X5700000Y6014740D02*
D03*
Y6365260D02*
D03*
D30*
X7755260Y4000000D02*
D03*
X7404740D02*
D03*
X9655260D02*
D03*
X9304740D02*
D03*
X11555260D02*
D03*
X11204740D02*
D03*
X3604740D02*
D03*
X3955260D02*
D03*
X16904739D02*
D03*
X17255260D02*
D03*
X15004739D02*
D03*
X15355260D02*
D03*
X13104739D02*
D03*
X13455260D02*
D03*
X5504740D02*
D03*
X5855260D02*
D03*
D31*
X4106000Y5900000D02*
D03*
X3852000D02*
D03*
X9808000Y4300000D02*
D03*
X9554000D02*
D03*
X17408000D02*
D03*
X17153999D02*
D03*
X15508000D02*
D03*
X15253999D02*
D03*
X13608000D02*
D03*
X13353999D02*
D03*
X11708000D02*
D03*
X11454000D02*
D03*
X7908000D02*
D03*
X7654000D02*
D03*
X6006000D02*
D03*
X5752000D02*
D03*
X4106000D02*
D03*
X3852000D02*
D03*
D32*
X3598000Y5900000D02*
D03*
X9300000Y4300000D02*
D03*
X16900000D02*
D03*
X15000000D02*
D03*
X13100000D02*
D03*
X11200000D02*
D03*
X7400000D02*
D03*
X5498000D02*
D03*
X3598000D02*
D03*
D33*
X10440000Y3500000D02*
D03*
X3740000Y6700000D02*
D03*
X17139999Y3500000D02*
D03*
Y6700000D02*
D03*
X3740000Y3500000D02*
D03*
X10440000Y6700000D02*
D03*
D34*
X4745000Y5100000D02*
D03*
X16145000D02*
D03*
X10445000D02*
D03*
%TF.MD5,6613d77c799eed6230448da278310e62*%
M02*
